<svg width="56" height="56" viewBox="0 0 56 56" fill="none" xmlns="http://www.w3.org/2000/svg">
<path d="M12 18.6467V19.9328H18.2311V18.6467H12ZM19.1111 18.6467V19.9328H27.9911C27.9911 19.9328 27.0844 18.6467 25.8844 18.6467H19.1111ZM29.7244 18.6467V19.9328H35.0933L34.7733 18.6467H29.7244ZM38.9511 18.6467L38.6311 19.9328H43.9556V18.6467H38.9511ZM12 21.1409V22.427H18.2311V21.1409H12ZM19.1111 21.1409V22.414H29.0133C29.0133 22.414 28.8978 21.4267 28.6933 21.1409H19.1111ZM29.7244 21.1409V22.414H35.68L35.3867 21.1409H29.7244ZM38.3111 21.1409L38.0178 22.414H43.9556V21.1409H38.3111ZM13.7867 23.6221V24.9082H16.48V23.6221H13.7867ZM20.8978 23.6221V24.9082H23.5911V23.6221H20.8978ZM26.2222 23.6221V24.9082H28.9156C28.9156 24.9082 29.0844 24.2327 29.0844 23.6221H26.2222ZM31.52 23.6221V24.9082H36.3022L35.9822 23.6221H31.52ZM37.7244 23.6221L37.4044 24.9082H42.2133V23.6221H37.7244ZM13.7867 26.1163V27.4024H16.48V26.1163H13.7867ZM20.8978 26.1163V27.4024H27.7867C27.7867 27.4024 28.3644 26.7399 28.5511 26.1163H20.8978ZM31.52 26.1163V27.4024H34.2133V26.6879L34.3822 27.4024H39.3244L39.5111 26.6879V27.4024H42.2044V26.1163H37.1378L36.8711 27.1946L36.6044 26.1163H31.52ZM13.7867 28.6106V29.8967H16.48V28.6106H13.7867ZM20.8978 28.6106V29.8967H28.5511C28.3644 29.2731 27.7867 28.6106 27.7867 28.6106H20.8978ZM31.52 28.6106V29.8967H34.2133V28.6106H31.52ZM34.7022 28.6106L35.0311 29.8967H38.7378L39.0489 28.6106H34.7022ZM39.5111 28.6106V29.8967H42.2044V28.6106H39.5111ZM13.7867 31.0918V32.3779H16.48V31.0918H13.7867ZM20.8978 31.0918V32.3779H23.5911V31.0918H20.8978ZM26.2222 31.0918V32.3779H29.0933C29.0933 31.7803 28.9244 31.0918 28.9244 31.0918H26.2222ZM31.52 31.0918V32.3779H34.2133V31.0918H31.52ZM35.3156 31.0918L35.6356 32.3779H38.1156L38.4356 31.0918H35.3156ZM39.5111 31.0918V32.3779H42.2044V31.0918H39.5111ZM12.0444 33.586V34.8721H18.2756V33.586H12.0444ZM19.1111 33.586V34.8721H28.7022C28.9067 34.5733 29.0222 33.586 29.0222 33.586H19.1111ZM29.7778 33.586V34.8721H34.2133V33.586H29.7778ZM35.9289 33.586L36.2578 34.8721H37.52L37.8222 33.586H35.9289ZM39.5111 33.586V34.8721H44V33.586H39.5111ZM12.0444 36.0673V37.3533H18.2756V36.0673H12.0444ZM19.1111 36.0673V37.3403H25.8756C27.0756 37.3403 27.9822 36.0673 27.9822 36.0673H19.1111ZM29.7778 36.0673V37.3533H34.2133V36.0673H29.7778ZM36.5511 36.0673L36.8622 37.3403H36.9156L37.2356 36.0673H36.5511ZM39.5111 36.0673V37.3533H44V36.0673H39.5111Z" fill="#1F70C1"/>
</svg>
